<?xml version="1.0" encoding="UTF-8" standalone="no"?>
<!-- Created with Inkscape (http://www.inkscape.org/) -->

<svg
   width="1920"
   height="1080"
   viewBox="0 0 1920 1080"
   version="1.1"
   id="svg1"
   inkscape:version="1.4.2 (f4327f4, 2025-05-13)"
   sodipodi:docname="wallpaper2.svg"
   inkscape:export-filename="Wallpaper2.png"
   inkscape:export-xdpi="96"
   inkscape:export-ydpi="96"
   xmlns:inkscape="http://www.inkscape.org/namespaces/inkscape"
   xmlns:sodipodi="http://sodipodi.sourceforge.net/DTD/sodipodi-0.dtd"
   xmlns:xlink="http://www.w3.org/1999/xlink"
   xmlns="http://www.w3.org/2000/svg"
   xmlns:svg="http://www.w3.org/2000/svg">
  <sodipodi:namedview
     id="namedview1"
     pagecolor="#505050"
     bordercolor="#eeeeee"
     borderopacity="1"
     inkscape:showpageshadow="0"
     inkscape:pageopacity="0"
     inkscape:pagecheckerboard="0"
     inkscape:deskcolor="#505050"
     inkscape:document-units="px"
     showgrid="true"
     inkscape:zoom="0.5807851"
     inkscape:cx="995.20459"
     inkscape:cy="402.04199"
     inkscape:window-width="2560"
     inkscape:window-height="1377"
     inkscape:window-x="-8"
     inkscape:window-y="-8"
     inkscape:window-maximized="1"
     inkscape:current-layer="layer1">
    <inkscape:grid
       id="grid3"
       units="px"
       originx="0"
       originy="0"
       spacingx="1"
       spacingy="1"
       empcolor="#0099e5"
       empopacity="0.30196078"
       color="#0099e5"
       opacity="0.14901961"
       empspacing="5"
       dotted="false"
       gridanglex="30"
       gridanglez="30"
       visible="true" />
  </sodipodi:namedview>
  <defs
     id="defs1">
    <linearGradient
       id="linearGradient20"
       inkscape:collect="always">
      <stop
         style="stop-color:#aff4fd;stop-opacity:0.52354599;"
         offset="0"
         id="stop20" />
      <stop
         style="stop-color:#aff4fd;stop-opacity:0;"
         offset="1"
         id="stop21" />
    </linearGradient>
    <linearGradient
       id="linearGradient18"
       inkscape:collect="always">
      <stop
         style="stop-color:#0e1b45;stop-opacity:1;"
         offset="0"
         id="stop18" />
      <stop
         style="stop-color:#050917;stop-opacity:0;"
         offset="1"
         id="stop19" />
    </linearGradient>
    <linearGradient
       id="linearGradient13"
       inkscape:collect="always">
      <stop
         style="stop-color:#050917;stop-opacity:1;"
         offset="0"
         id="stop13" />
      <stop
         style="stop-color:#050917;stop-opacity:0;"
         offset="1"
         id="stop14" />
    </linearGradient>
    <linearGradient
       id="linearGradient11"
       inkscape:collect="always">
      <stop
         style="stop-color:#050917;stop-opacity:1;"
         offset="0"
         id="stop11" />
      <stop
         style="stop-color:#050917;stop-opacity:0;"
         offset="1"
         id="stop12" />
    </linearGradient>
    <linearGradient
       id="linearGradient9"
       inkscape:collect="always">
      <stop
         style="stop-color:#050917;stop-opacity:1;"
         offset="0"
         id="stop9" />
      <stop
         style="stop-color:#050917;stop-opacity:0;"
         offset="1"
         id="stop10" />
    </linearGradient>
    <linearGradient
       id="linearGradient7"
       inkscape:collect="always">
      <stop
         style="stop-color:#050917;stop-opacity:1;"
         offset="0"
         id="stop7" />
      <stop
         style="stop-color:#050917;stop-opacity:0;"
         offset="1"
         id="stop8" />
    </linearGradient>
    <linearGradient
       id="linearGradient5"
       inkscape:collect="always">
      <stop
         style="stop-color:#050917;stop-opacity:1;"
         offset="0"
         id="stop5" />
      <stop
         style="stop-color:#050917;stop-opacity:0;"
         offset="1"
         id="stop6" />
    </linearGradient>
    <linearGradient
       inkscape:collect="always"
       xlink:href="#linearGradient5"
       id="linearGradient6"
       x1="460"
       y1="640"
       x2="460"
       y2="860"
       gradientUnits="userSpaceOnUse" />
    <linearGradient
       inkscape:collect="always"
       xlink:href="#linearGradient7"
       id="linearGradient8"
       x1="-60"
       y1="460"
       x2="637.06868"
       y2="587.63713"
       gradientUnits="userSpaceOnUse" />
    <linearGradient
       inkscape:collect="always"
       xlink:href="#linearGradient9"
       id="linearGradient10"
       x1="1520"
       y1="80"
       x2="1480"
       y2="680"
       gradientUnits="userSpaceOnUse" />
    <linearGradient
       inkscape:collect="always"
       xlink:href="#linearGradient11"
       id="linearGradient12"
       x1="1550"
       y1="570"
       x2="1580"
       y2="720"
       gradientUnits="userSpaceOnUse" />
    <linearGradient
       inkscape:collect="always"
       xlink:href="#linearGradient13"
       id="linearGradient14"
       x1="885"
       y1="360"
       x2="900"
       y2="740"
       gradientUnits="userSpaceOnUse" />
    <linearGradient
       inkscape:collect="always"
       xlink:href="#linearGradient13"
       id="linearGradient15"
       gradientUnits="userSpaceOnUse"
       x1="885"
       y1="360"
       x2="900"
       y2="740"
       gradientTransform="matrix(-0.68138751,0.22834278,0.22834278,0.68138751,1100.8928,151.70489)" />
    <linearGradient
       inkscape:collect="always"
       xlink:href="#linearGradient13"
       id="linearGradient16"
       gradientUnits="userSpaceOnUse"
       gradientTransform="matrix(0.78152985,0,0,0.78152985,497.29851,286.7517)"
       x1="885"
       y1="360"
       x2="900"
       y2="740" />
    <linearGradient
       inkscape:collect="always"
       xlink:href="#linearGradient13"
       id="linearGradient17"
       gradientUnits="userSpaceOnUse"
       gradientTransform="matrix(0.54406642,0,0,0.54406642,-101.80819,267.46711)"
       x1="885"
       y1="360"
       x2="900"
       y2="740" />
    <linearGradient
       inkscape:collect="always"
       xlink:href="#linearGradient18"
       id="linearGradient19"
       x1="-87.990257"
       y1="765.38682"
       x2="2183.8993"
       y2="765.38682"
       gradientUnits="userSpaceOnUse" />
    <linearGradient
       inkscape:collect="always"
       xlink:href="#linearGradient20"
       id="linearGradient21"
       x1="0"
       y1="80"
       x2="1920"
       y2="80"
       gradientUnits="userSpaceOnUse" />
  </defs>
  <g
     inkscape:label="Layer 1"
     inkscape:groupmode="layer"
     id="layer1">
    <path
       id="rect19"
       style="fill:url(#linearGradient21);fill-opacity:0.523546;fill-rule:evenodd;stroke-width:25;stroke-linejoin:round;stroke-opacity:0.803324;paint-order:markers stroke fill"
       d="m 0,0 h 1920 v 160 c 0,0 -135.6717,-56.07051 -340,-60 -184.815,-3.554221 -426.6278,45.30445 -660,40 C 691.83225,134.81384 471.03543,110.76666 300,120 199.26171,125.43835 0,160 0,160 Z"
       sodipodi:nodetypes="cccssscc" />
    <path
       style="fill:url(#linearGradient19);fill-opacity:1;fill-rule:evenodd;stroke-width:25;stroke-linejoin:round;stroke-opacity:0.803324;paint-order:markers stroke fill"
       d="M 2040,380 C 1800.7221,380.27014 1591.5451,546.38417 1361.9495,575.08362 1167.0893,599.44115 1008.0818,405.4884 817.85845,420.12097 693.58942,429.68013 609.28157,620.65197 482.10603,588.85808 343.05535,554.09541 306.59408,274.16971 115.36109,321.97796 c -264.10231,66.02557 -221.93305,504.92175 -144.631813,690.44474 6.593151,15.8235 27.8357691,23.3159 36.157952,37.8797 10.111063,17.6944 -15.6063254,41.2133 3.443615,60.2633 64.838703,64.8387 757.703626,49.9393 866.069046,56.8196 262.40621,16.6607 524.37471,13.6057 786.86591,24.1053 147.7419,5.9097 319.3291,36.5364 466.6098,15.4963 42.9037,-6.1291 44.4895,-118.2519 46.4888,-142.91 C 2196.0719,821.01781 2185.6166,575.02787 2040,380 Z"
       id="path17" />
    <path
       style="fill:#ffffff;fill-opacity:0.289474;fill-rule:evenodd;stroke-width:25;stroke-linejoin:round;stroke-opacity:0.803324;paint-order:markers stroke fill"
       d="m 100,-20 c -6.205186,1.511815 -134.443331,33.767272 -110.330844,57.87976 16.1568681,16.156867 81.829698,-6.887229 101.586628,-6.887229 66.324856,0 124.394766,28.213631 192.842416,34.436145 47.16884,4.288076 84.70402,-33.110436 134.30096,-18.93988 65.77267,18.792191 93.9603,51.654217 170.45892,51.654217 55.34467,0 106.68998,-45.123764 151.51904,-36.157952 85.4374,17.08748 120.11198,93.431489 211.78229,82.646749 79.93719,-9.40437 62.62819,-111.660208 130.85739,-84.368556 57.9193,23.167725 107.2834,67.653556 175.6243,58.541446 58.0712,-7.74282 79.2244,-86.083286 146.3536,-63.706868 49.5765,16.525505 209.5556,60.768178 251.3839,18.93988 10.8061,-10.80616 -52.3778,-30.659771 -37.8798,-25.827109 35.3951,11.798351 84.1145,10.330844 122.2483,10.330844 0.7971,0 89.2335,-10.53118 79.2032,-17.218073 -34.027,-22.684618 -161.589,-20.661687 -201.4515,-20.661687 -6.4439,0 -42.797,-5.413552 -48.2106,0 -25.2931,25.293138 36.195,32.178851 10.3309,36.157952 -87.8805,13.520072 -175.3486,-62.0769833 -263.4366,-32.714337 -28.2811,9.427045 -59.4674,53.607531 -86.0903,60.263253 C 1158.8426,102.43095 1069.0398,34.307859 993.48279,29.270723 925.61142,24.745965 978.63522,95.590618 948.7158,99.864821 844.18827,114.79732 823.17128,47.386554 730.04628,24.105302 673.92457,10.074875 643.07274,62.506058 594.0235,72.315905 529.40698,85.239209 485.61766,40.772111 430.45181,22.383494 352.16326,-3.7126885 256.97092,100.28646 177.34615,20.661687 c -3.27194,-3.271937 9.16463,-1.320953 13.77446,-1.721807 41.90686,-3.644075 109.86287,11.700576 142.91,-10.3308437 72.80487,-48.5365793 324.91584,120.3218837 352.97048,36.1579527 33.95327,-101.859804 101.67627,-1.721808 161.84989,-1.721808 36.28256,0 96.82189,15.396093 130.85735,6.887229 31.59297,-7.898238 45.00867,-32.679808 80.92497,-27.548916 67.797,9.685291 160.5351,54.38821 230.7221,30.992531 41.5677,-13.855881 76.5739,-40.598199 122.2484,-48.2106032 34.144,-5.69066711 44.5429,25.0571842 74.0377,29.2707232 74.1866,10.598089 132.8039,-12.959268 206.6168,3.443615 16.0886,3.575228 71.37,-9.081992 75.7596,-6.887229 15.2219,7.610953 131.2264,42.122479 154.9626,-17.218073 -163.1121,112.104482 -38.247,5.717873 -158.4063,-25.827109 -154.0074,-25.667911 -342.2583,-10.330843 -499.3241,-10.330843 -229.5505,0 -460.71766,-42.551984 -688.72286,-17.218073 -98.86332,10.984813 -55.22511,67.752702 -75.75952,72.315905 C 457.76449,42.715054 423.11584,11.82828 389.12844,-5.1654218 347.92451,-25.767388 299.53473,9.0469549 261.7147,13.774458 226.20676,18.212951 237.84771,11.711564 206.61687,0 173.26603,-12.506565 131.61764,-3.483331 100,-20 Z"
       id="path12"
       sodipodi:nodetypes="cssssssssssssssssssssssssssssssssssssssssssssc" />
    <path
       style="fill:#ffffff;fill-opacity:0.289474;fill-rule:evenodd;stroke-width:20.4859;stroke-linejoin:round;stroke-opacity:0.803324;paint-order:markers stroke fill"
       d="m 1843.1743,32.746079 c 6.3957,0.98491 138.5707,21.998617 113.7179,37.707362 -16.6528,10.525837 -84.3418,-4.486876 -104.7053,-4.486876 -68.3611,0 -128.2137,18.380546 -198.7626,22.434371 -48.617,2.793587 -87.3044,-21.570701 -138.4241,-12.338906 -67.7918,12.242689 -96.8448,33.65156 -175.6919,33.65156 -57.0438,0 -109.9654,-29.397112 -156.1707,-23.556089 C 1095.0772,97.28961 1059.3381,147.02602 964.85365,140 882.46238,133.87326 900.30277,67.255885 829.97894,85.035781 770.28152,100.12904 719.40194,129.11055 648.96299,123.17422 589.109,118.12995 567.3064,67.092892 498.11634,81.670626 447.01785,92.436617 282.1274,121.25973 239.01498,94.009532 c -11.13785,-7.03997 53.98579,-19.974151 39.0427,-16.825782 -36.48172,7.68636 -86.6968,6.73031 -126.00131,6.73031 -0.82157,0 -91.97296,-6.860827 -81.634731,-11.217185 35.071631,-14.77852 166.549771,-13.46062 207.636041,-13.46062 6.64173,0 44.11087,-3.526812 49.69066,0 26.0696,16.477906 -37.30618,20.963797 -10.64805,23.556091 90.57842,8.808022 180.73178,-40.441762 271.52408,-21.312656 29.14933,6.141511 61.29304,34.9241 88.73326,39.26015 74.46766,11.76725 167.0274,-32.613412 244.90399,-35.894995 69.955,-2.94778 15.30342,43.205925 46.14135,45.990465 107.73653,9.72819 129.39873,-34.18841 225.38263,-49.35562 57.8446,-9.14051 89.6436,25.017231 140.1987,31.408121 66.6002,8.419249 111.7338,-20.550069 168.5933,-32.529842 80.692,-17.001074 178.8068,50.752031 260.8759,-1.121714 3.3725,-2.131595 -9.4459,-0.860575 -14.1972,-1.12172 -43.1935,-2.374036 -113.2357,7.622658 -147.2973,-6.730317 -75.0401,-31.620483 -334.8908,78.387002 -363.8067,23.556098 -34.9957,-66.3593731 -104.7978,-1.12172 -166.8187,-1.12172 -37.3965,0 -99.79421,10.030206 -134.8746,4.486875 C 903.8961,73.159945 890.06854,57.01531 853.04961,60.357969 783.17125,66.667718 687.58609,95.790665 615.24436,80.548905 572.40053,71.522111 536.31965,54.100091 489.24294,49.140784 454.05072,45.43344 443.33258,65.464973 412.93229,68.21 336.46817,75.114417 276.05132,59.767333 199.97237,70.453441 183.38985,72.782623 126.41132,64.536728 121.88696,65.966565 106.19775,70.924928 -4.4947896,125.93826 -28.959689,87.279222 -68.750993,24.401655 123.39663,101.24236 118.33764,110.83531 99.949543,145.70323 -69.32767,58.441101 125.43638,37.923599 284.1718,21.201533 478.20198,31.193282 640.08969,31.193282 c 236.59768,0 474.86171,-27.7216576 709.86661,-11.217185 101.8984,7.156357 56.9206,44.13936 78.0854,47.112189 46.3848,6.515237 82.0971,-13.606799 117.128,-24.677812 42.4689,-13.42172 92.3443,27.206541 131.3253,30.286401 36.598,2.891576 24.5998,-19.291428 56.7893,-26.921246 34.3748,-8.147749 77.3017,-2.269311 109.89,-13.02955 z"
       id="path12-2" />
    <path
       style="fill:#050917;fill-opacity:1;fill-rule:evenodd;stroke-width:25;stroke-linejoin:round;stroke-opacity:0.803324;paint-order:markers stroke fill"
       d="m 1940.1778,730.0889 c -48.1463,-38.00327 -102.6259,-17.74911 -153.8242,-0.683 C 1735.9053,746.222 1680.6038,763.90775 1640,800 c -39.7773,35.35757 -73.7536,95.51295 -130.8574,105.03024 -103.2562,17.20937 -216.3393,-35.95563 -316.8125,1.72181 -32.1249,12.04682 -157.4641,136.96495 -113.6393,180.78975 0.8348,0.8348 235.8716,10.1327 258.2711,12.0527 58.6843,5.03 116.7156,5.1654 175.6244,5.1654 132.3011,0 319.4217,37.5248 447.6698,-13.7745 2.5368,-1.0147 17.2004,-335.13447 -20.0783,-360.8965 z"
       id="path4" />
    <path
       style="fill:#0b1433;fill-opacity:1;fill-rule:evenodd;stroke-width:26.09;stroke-linejoin:round;stroke-opacity:0.803324;paint-order:markers stroke fill"
       d="m 0,782.56824 c 186.14219,-91.76313 372.00626,46.85739 561.30916,46.85739 208.90816,0 345.10595,-90.11214 557.86554,0 236.3823,100.11728 259.8089,157.5188 532.0385,157.5188 54.249,0 272.0455,5.89827 272.0455,97.51167 0,8.15 8.415,20.7331 1.7218,24.3778 -22.0856,12.0268 -362.3998,-3.9561 -406.3465,-1.8752 -425.7515,20.1604 -850.62144,-35.9461 -1275.85918,3.7505 -30.98499,2.8925 -282.354293,16.9011 -294.429038,3.7505 -4.156375,-4.5268 12.205259,-7.8334 13.774458,-11.2514 6.778257,-14.7644 6.887229,-41.7047 6.887229,-58.1319 0,-57.20283 -9.339465,-128.08366 3.443615,-183.77197 C -21.17875,833.55339 0,814.19357 0,782.56824 Z"
       id="path3" />
    <path
       style="fill:url(#linearGradient6);fill-opacity:1;fill-rule:evenodd;stroke-width:25;stroke-linejoin:round;stroke-opacity:0.803324;paint-order:markers stroke fill"
       d="M 1820,800 C 1602.0987,711.54486 1361.7153,658.07537 1124.3401,690.44471 1015.1913,705.32865 907.89222,760.51931 793.75314,740.37712 650.42142,715.08329 544.53519,626.90448 392.57205,635.34688 327.65982,638.95311 75.115302,793.46812 115.36109,847.12917 c 42.69658,56.92878 180.20274,64.17188 239.3312,80.92494 365.00904,103.41919 819.84371,53.61159 1194.93421,25.82711 56.5575,-4.18944 123.7375,-11.93633 175.6244,-37.87976 C 1760.8928,898.1805 1840.3191,826.04483 1820,800 Z"
       id="path5" />
    <path
       style="fill:url(#linearGradient8);fill-opacity:1;fill-rule:evenodd;stroke-width:25;stroke-linejoin:round;stroke-opacity:0.803324;paint-order:markers stroke fill"
       d="m 220,-40 c -79.7661,188.90393 -94.57487,470.18501 65.82,630.57989 42.51983,42.51983 97.90857,63.34511 148.07543,94.6994 111.42737,69.6421 203.17325,238.49003 203.17325,366.74491 0,258.4964 -571.289792,186.2054 -704.219163,91.2558 -99.922497,-71.3732 -85.587007,-264.16132 -91.255787,-368.46674 -16.03676,-295.07651 -48.63574,-495.29857 91.255787,-757.595187 8.4234,-15.7938757 19.839899,-47.028808 36.157952,-56.81964 C 46.663002,-86.194887 149.22171,-9.3543361 220,-40 Z"
       id="path6" />
    <path
       style="fill:url(#linearGradient10);fill-opacity:1;fill-rule:evenodd;stroke-width:25;stroke-linejoin:round;stroke-opacity:0.803324;paint-order:markers stroke fill"
       d="m 1480,320 c 74.5223,66.80845 -44.2216,186.82857 -111.1632,108.73001 C 1220.034,255.12673 1440,40 1600,120 c 75.5824,37.79119 103.916,132.35482 80.4839,226.08326 -31.0179,124.07158 -131.9204,178.8133 -168.7371,289.26362 -2.6075,7.82253 -1.9887,77.61474 -8.6091,80.92494 -0.9302,0.46514 -49.1323,-19.40077 -55.0978,-22.3835 -4.325,-2.1625 11.2607,-20.00767 12.0527,-22.38349 7.5349,-22.60479 16.1666,-52.65986 29.2707,-72.31591 60.0591,-90.08873 235.551,-355.79844 79.2031,-425.28639 -36.3985,-16.17712 -96.2331,3.65407 -127.4137,20.66169 C 1230.2863,309.58224 1523.1003,564.22928 1480,320 Z"
       id="path8"
       sodipodi:nodetypes="csssssscsssc" />
    <path
       style="fill:url(#linearGradient12);fill-opacity:1;fill-rule:evenodd;stroke-width:25;stroke-linejoin:round;stroke-opacity:0.803324;paint-order:markers stroke fill"
       d="m 1540,700 c 5.3272,-19.30954 15.6923,-40.62663 25.1228,-59.4877 125.719,-251.438 254.2766,20.00246 117.0829,39.60157 -21.9868,3.14097 -28.786,-43.77229 -18.9399,-58.54145 7.4734,-11.21012 17.1858,37.48964 43.0452,5.16542 21.5644,-26.95549 -20.3164,-61.52623 -49.9324,-51.65422 -28.2984,9.43279 -54.6606,73.6278 -44.767,103.30844 2.5983,7.79505 21.7816,54.33823 19.7242,56.39562 -1.448,1.44794 -85.754,-23.60928 -94.2826,-23.60928 z"
       id="path10"
       sodipodi:nodetypes="ccssssssc" />
    <path
       style="fill:url(#linearGradient14);fill-opacity:1;fill-rule:evenodd;stroke-width:25;stroke-linejoin:round;stroke-opacity:0.803324;paint-order:markers stroke fill"
       d="m 720,440 c -2.41977,-9.81202 -35.91978,-5.2127 -32.99891,9.39169 C 687.57548,452.26363 784.96848,593.69484 800,620 c 15.78218,27.61881 34,100 39,125 15,-1 31,0 42.56531,-1.17927 L 1093.3476,442.50446 C 1090.3313,439.4882 1044.1931,432.71286 1040,435 c -55,30 -80,125 -136.05119,231.33941 -0.78072,1.48117 1.72181,-43.98375 1.72181,-101.58663 0,-9.226 3.1486,-211.25752 0,-211.78229 C 890.76065,350.48549 877.23066,350.34233 870,360 c 0,45 -2.20199,160.03587 2.95628,196.14374 1.3389,9.37226 5.41432,99.86482 8.60903,99.86482 0.33372,0 -18.47996,-67.03262 -20.66168,-75.75952 C 855.02419,556.73128 784.75952,392.55934 776.53507,397.73748 765,405 760,410 755,420 c 25,55 87.84127,181.47619 80,205 -0.82663,2.47988 -83.61546,-172.72801 -115,-185 z"
       id="path13"
       sodipodi:nodetypes="csscccsssscsssscsc" />
    <path
       style="fill:url(#linearGradient15);fill-opacity:1;fill-rule:evenodd;stroke-width:17.9658;stroke-linejoin:round;stroke-opacity:0.803324;paint-order:markers stroke fill"
       d="m 710.76459,615.9222 c -0.5917,-7.23832 23.28501,-11.75389 24.62957,-1.13569 0.26441,2.08806 -33.80317,120.69651 -38.03887,142.05287 -4.44722,22.42285 -0.33289,75.9024 1.96873,94.0788 -10.44915,2.74375 -21.12301,7.07862 -29.27274,8.91594 L 456.94209,702.87993 c 1.36652,-2.744 31.25741,-17.89595 34.63679,-17.29498 44.32659,7.88277 83.05384,66.90601 145.52826,126.56547 0.87019,0.83099 -11.2166,-29.57681 -24.3698,-68.82669 -2.10669,-6.28648 -50.38454,-143.22928 -48.35895,-144.3058 9.59204,-5.09784 18.77852,-8.28486 25.91065,-3.35532 10.27543,30.66244 38.04344,108.54364 42.77364,134.32494 1.22777,6.69188 19.11415,69.28296 16.93732,70.01245 -0.22739,0.0762 -2.7144,-49.89495 -3.22053,-56.33953 -1.36393,-17.36724 9.02606,-145.27638 15.81249,-143.62605 9.5182,2.31464 14.06685,4.57986 19.75721,10.25203 -4.47583,43.18488 -18.41516,143.71353 -7.70073,157.95186 1.12952,1.501 17.53334,-136.7877 36.11615,-152.31611 z"
       id="path13-4"
       sodipodi:nodetypes="csscccsssscsssscsc" />
    <path
       style="fill:url(#linearGradient16);fill-opacity:1;fill-rule:evenodd;stroke-width:19.5382;stroke-linejoin:round;stroke-opacity:0.803324;paint-order:markers stroke fill"
       d="m 1060,630.62484 c -1.8911,-7.66839 -28.0724,-4.07388 -25.7896,7.33988 0.4489,2.24451 76.5644,112.77722 88.312,133.33549 12.3343,21.58492 26.572,78.15298 30.4797,97.69123 11.7229,-0.78153 24.2274,0 33.266,-0.92163 l 165.5142,-235.48766 c -2.3573,-2.3573 -38.4157,-7.65243 -41.6927,-5.86496 -42.9842,23.44589 -62.5224,97.69123 -106.3281,180.79865 -0.6102,1.15758 1.3456,-34.37461 1.3456,-79.39298 0,-7.2104 2.4607,-165.10406 0,-165.51418 -11.6526,-1.9421 -22.2266,-2.05399 -27.8776,5.49377 0,35.16884 -1.7209,125.07281 2.3104,153.29219 1.0464,7.3247 4.2315,78.04733 6.7282,78.04733 0.2608,0 -14.4427,-52.38799 -16.1477,-59.20832 -4.595,-18.37983 -59.5089,-146.6851 -65.9365,-142.63823 -9.015,5.67587 -12.9227,9.58352 -16.8303,17.39882 19.5382,42.98414 68.6506,141.82906 62.5223,160.21362 -0.646,1.9381 -65.348,-134.9921 -89.8759,-144.58302 z"
       id="path13-4-5"
       sodipodi:nodetypes="csscccsssscsssscsc" />
    <path
       style="fill:url(#linearGradient17);fill-opacity:1;fill-rule:evenodd;stroke-width:13.6017;stroke-linejoin:round;stroke-opacity:0.803324;paint-order:markers stroke fill"
       d="m 289.91963,506.85633 c -1.31651,-5.33839 -19.54274,-2.83605 -17.95359,5.10971 0.3125,1.56252 53.30076,78.51049 61.47891,92.82225 8.58655,15.02646 18.49826,54.40664 21.21859,68.0083 8.16099,-0.54407 16.86606,0 23.15835,-0.6416 L 493.04552,508.21892 C 491.40445,506.57788 466.30221,502.89164 464.02088,504.136 434.09724,520.45799 420.49557,572.1443 390,630 c -0.42476,0.80586 0.93678,-23.93008 0.93678,-55.26987 0,-5.01956 1.71305,-114.93812 0,-115.22363 -8.11201,-1.35201 -15.47322,-1.4299 -19.40718,3.82452 0,24.48299 -1.19803,87.07014 1.60841,106.71522 0.72845,5.09913 2.94575,54.3331 4.68388,54.3331 0.18157,0 -10.05432,-36.4702 -11.24132,-41.21821 -3.19881,-12.79523 -41.42746,-102.11567 -45.9021,-99.29842 -6.27585,3.9513 -8.99618,6.67163 -11.71651,12.11229 13.60166,29.92366 47.79148,98.7351 43.52531,111.53362 -0.44974,1.34922 -45.49236,-93.97551 -62.56764,-100.65229 z"
       id="path13-4-3"
       sodipodi:nodetypes="csscccsssscsssscsc" />
  </g>
</svg>
